<svg width="207" height="51" viewBox="0 0 207 51" fill="none" xmlns="http://www.w3.org/2000/svg">
<path d="M59.2797 29.957H52.5949L51.5233 33.1208H46.9562L53.4369 15.2096H58.4888L64.9695 33.1208H60.3514L59.2797 29.957ZM58.1571 26.5891L55.9373 20.0318L53.7431 26.5891H58.1571ZM72.7337 33.325C71.492 33.325 70.3864 33.1123 69.4168 32.6871C68.4473 32.2619 67.6818 31.6835 67.1205 30.9521C66.5592 30.2037 66.2445 29.3702 66.1765 28.4517H70.4884C70.5395 28.945 70.7691 29.3447 71.1773 29.6509C71.5856 29.957 72.0874 30.1101 72.6827 30.1101C73.227 30.1101 73.6437 30.0081 73.9329 29.8039C74.2391 29.5828 74.3922 29.3022 74.3922 28.962C74.3922 28.5537 74.1796 28.2561 73.7543 28.069C73.3291 27.8648 72.6402 27.6437 71.6876 27.4056C70.667 27.1674 69.8165 26.9208 69.1362 26.6656C68.4558 26.3935 67.8689 25.9768 67.3756 25.4154C66.8824 24.8371 66.6357 24.0632 66.6357 23.0936C66.6357 22.2771 66.8569 21.5372 67.2991 20.8738C67.7584 20.1934 68.4217 19.6576 69.2892 19.2664C70.1738 18.8752 71.2199 18.6796 72.4275 18.6796C74.2136 18.6796 75.6169 19.1218 76.6375 20.0063C77.6751 20.8908 78.2704 22.0645 78.4235 23.5273H74.3922C74.3241 23.0341 74.103 22.6428 73.7288 22.3537C73.3716 22.0645 72.8953 21.9199 72.3 21.9199C71.7897 21.9199 71.3985 22.022 71.1263 22.2261C70.8541 22.4132 70.7181 22.6769 70.7181 23.0171C70.7181 23.4253 70.9307 23.7315 71.3559 23.9356C71.7982 24.1397 72.4786 24.3438 73.3971 24.5479C74.4517 24.8201 75.3107 25.0922 75.9741 25.3644C76.6375 25.6195 77.2158 26.0448 77.7091 26.6401C78.2194 27.2185 78.483 28.0009 78.5 28.9875C78.5 29.821 78.2619 30.5694 77.7856 31.2328C77.3264 31.8791 76.6545 32.3894 75.77 32.7636C74.9025 33.1379 73.8904 33.325 72.7337 33.325ZM86.5784 18.6796C87.582 18.6796 88.458 18.8837 89.2064 19.2919C89.9719 19.7002 90.5587 20.236 90.9669 20.8993V18.8837H95.3299V33.0953C95.3299 34.4051 95.0663 35.5873 94.539 36.6419C94.0287 37.7135 93.2377 38.564 92.1661 39.1933C91.1115 39.8227 89.7932 40.1374 88.2113 40.1374C86.1021 40.1374 84.3927 39.6356 83.0829 38.632C81.7731 37.6454 81.0247 36.3017 80.8376 34.6007H85.1496C85.2857 35.145 85.6088 35.5703 86.1191 35.8764C86.6294 36.1996 87.2588 36.3612 88.0072 36.3612C88.9087 36.3612 89.6232 36.0976 90.1505 35.5703C90.6948 35.06 90.9669 34.235 90.9669 33.0953V31.0797C90.5417 31.7431 89.9548 32.2874 89.2064 32.7126C88.458 33.1208 87.582 33.325 86.5784 33.325C85.4047 33.325 84.3416 33.0273 83.3891 32.432C82.4365 31.8196 81.6796 30.9606 81.1183 29.855C80.574 28.7323 80.3018 27.4396 80.3018 25.9768C80.3018 24.5139 80.574 23.2297 81.1183 22.124C81.6796 21.0184 82.4365 20.1679 83.3891 19.5726C84.3416 18.9772 85.4047 18.6796 86.5784 18.6796ZM90.9669 26.0023C90.9669 24.9136 90.6607 24.0546 90.0484 23.4253C89.4531 22.7959 88.7216 22.4812 87.8541 22.4812C86.9866 22.4812 86.2467 22.7959 85.6344 23.4253C85.039 24.0376 84.7414 24.8881 84.7414 25.9768C84.7414 27.0654 85.039 27.9329 85.6344 28.5792C86.2467 29.2086 86.9866 29.5233 87.8541 29.5233C88.7216 29.5233 89.4531 29.2086 90.0484 28.5792C90.6607 27.9499 90.9669 27.0909 90.9669 26.0023ZM97.6189 25.9768C97.6189 24.5139 97.891 23.2297 98.4353 22.124C98.9967 21.0184 99.7536 20.1679 100.706 19.5726C101.659 18.9772 102.722 18.6796 103.895 18.6796C104.899 18.6796 105.775 18.8837 106.523 19.2919C107.289 19.7002 107.876 20.236 108.284 20.8993V18.8837H112.647V33.1208H108.284V31.1052C107.859 31.7686 107.263 32.3044 106.498 32.7126C105.75 33.1208 104.874 33.325 103.87 33.325C102.713 33.325 101.659 33.0273 100.706 32.432C99.7536 31.8196 98.9967 30.9606 98.4353 29.855C97.891 28.7323 97.6189 27.4396 97.6189 25.9768ZM108.284 26.0023C108.284 24.9136 107.978 24.0546 107.365 23.4253C106.77 22.7959 106.039 22.4812 105.171 22.4812C104.304 22.4812 103.564 22.7959 102.951 23.4253C102.356 24.0376 102.058 24.8881 102.058 25.9768C102.058 27.0654 102.356 27.9329 102.951 28.5792C103.564 29.2086 104.304 29.5233 105.171 29.5233C106.039 29.5233 106.77 29.2086 107.365 28.5792C107.978 27.9499 108.284 27.0909 108.284 26.0023ZM120.166 21.2565C120.677 20.4741 121.315 19.8617 122.08 19.4195C122.845 18.9602 123.696 18.7306 124.631 18.7306V23.3487H123.432C122.344 23.3487 121.527 23.5869 120.983 24.0632C120.439 24.5224 120.166 25.3389 120.166 26.5126V33.1208H115.803V18.8837H120.166V21.2565ZM125.849 25.9768C125.849 24.5139 126.122 23.2297 126.666 22.124C127.227 21.0184 127.984 20.1679 128.937 19.5726C129.889 18.9772 130.952 18.6796 132.126 18.6796C133.062 18.6796 133.912 18.8752 134.677 19.2664C135.46 19.6576 136.072 20.1849 136.515 20.8483V14.24H140.878V33.1208H136.515V31.0797C136.106 31.7601 135.519 32.3044 134.754 32.7126C134.006 33.1208 133.13 33.325 132.126 33.325C130.952 33.325 129.889 33.0273 128.937 32.432C127.984 31.8196 127.227 30.9606 126.666 29.855C126.122 28.7323 125.849 27.4396 125.849 25.9768ZM136.515 26.0023C136.515 24.9136 136.208 24.0546 135.596 23.4253C135.001 22.7959 134.269 22.4812 133.402 22.4812C132.534 22.4812 131.794 22.7959 131.182 23.4253C130.587 24.0376 130.289 24.8881 130.289 25.9768C130.289 27.0654 130.587 27.9329 131.182 28.5792C131.794 29.2086 132.534 29.5233 133.402 29.5233C134.269 29.5233 135.001 29.2086 135.596 28.5792C136.208 27.9499 136.515 27.0909 136.515 26.0023Z" fill="#060411"/>
<path d="M153.221 30.7879C153.221 32.8469 151.979 33.8764 149.493 33.8764C147.008 33.8764 145.765 32.8469 145.765 30.7879V28.9127H147.309V30.8761C147.309 31.4056 147.493 31.8174 147.861 32.1115C148.228 32.4057 148.772 32.5527 149.493 32.5527C150.214 32.5527 150.758 32.4057 151.126 32.1115C151.493 31.8174 151.677 31.4203 151.677 30.9203C151.677 30.4055 151.618 30.0011 151.501 29.7069C151.398 29.3981 151.177 29.0745 150.839 28.7363L146.956 24.9418C146.5 24.4859 146.184 24.0447 146.008 23.6182C145.846 23.177 145.765 22.6255 145.765 21.9637C145.765 20.9783 146.066 20.2209 146.669 19.6914C147.287 19.1472 148.214 18.8752 149.449 18.8752C151.817 18.8752 153.001 19.9047 153.001 21.9637V23.8388H151.456V21.8754C151.456 21.346 151.28 20.9342 150.927 20.64C150.589 20.3459 150.074 20.1988 149.383 20.1988C148.692 20.1988 148.169 20.3459 147.816 20.64C147.478 20.9342 147.309 21.3386 147.309 21.8533C147.309 22.3681 147.361 22.7725 147.464 23.0667C147.566 23.3608 147.794 23.6697 148.147 23.9932L152.096 27.7877C152.523 28.2583 152.817 28.7142 152.979 29.1554C153.14 29.5819 153.221 30.1261 153.221 30.7879ZM158.738 33.5455H157.193V19.2061H158.738V25.6037H163.083V19.2061H164.628V33.5455H163.083V26.9273H158.738V33.5455ZM176.212 21.9637V30.7879C176.212 31.7733 175.896 32.538 175.263 33.0822C174.646 33.6117 173.712 33.8764 172.462 33.8764C171.226 33.8764 170.292 33.6117 169.66 33.0822C169.028 32.538 168.711 31.7733 168.711 30.7879V21.9637C168.711 20.9783 169.02 20.2209 169.638 19.6914C170.27 19.1472 171.204 18.8752 172.44 18.8752C173.69 18.8752 174.631 19.1472 175.263 19.6914C175.896 20.2209 176.212 20.9783 176.212 21.9637ZM174.668 30.7879V21.9637C174.668 20.7871 173.932 20.1988 172.462 20.1988C170.991 20.1988 170.256 20.7871 170.256 21.9637V30.7879C170.256 31.9645 170.991 32.5527 172.462 32.5527C173.932 32.5527 174.668 31.9645 174.668 30.7879ZM181.612 33.5455H180.067V19.2061H183.399C184.546 19.2061 185.413 19.4782 186.002 20.0223C186.605 20.5665 186.906 21.3239 186.906 22.2946V26.0449C186.906 27.0302 186.612 27.795 186.024 28.3392C185.435 28.8686 184.56 29.1333 183.399 29.1333H181.612V33.5455ZM185.362 26.0449V22.2946C185.362 21.7357 185.193 21.3018 184.855 20.993C184.516 20.6841 184.031 20.5297 183.399 20.5297H181.612V27.8097H183.399C184.707 27.8097 185.362 27.2214 185.362 26.0449Z" fill="#454DFF"/>
<path d="M19.7875 8C19.7875 8 17.009 12.1796 17.009 17.1436C17.009 18.9858 18.5693 20.1404 19.7763 20.758C20.4729 21.1144 20.8596 22.0318 20.5357 22.799L19.2879 25.7547C19.0088 26.4159 18.3074 26.7074 17.7347 26.3418C16.4796 25.5408 14.4425 23.9421 13.5708 21.5847C12.6344 19.0526 12.711 17.1436 13.0965 15.5761C14.1887 11.1349 19.7875 8 19.7875 8Z" fill="black"/>
<path d="M36.6438 17.1436C36.6438 12.1796 33.8653 8 33.8653 8C33.8653 8 39.4641 11.1349 40.5563 15.5761C40.9418 17.1436 41.0184 19.0526 40.0821 21.5847C39.2103 23.9421 37.1732 25.5408 35.9182 26.3418C35.3454 26.7074 34.6441 26.4159 34.3649 25.7547L33.1171 22.799C32.7932 22.0318 33.1799 21.1144 33.8765 20.758C35.0836 20.1404 36.6438 18.9858 36.6438 17.1436Z" fill="black"/>
<path d="M33.9499 27.7215H38.5521C39.0042 27.7215 39.3707 28.1253 39.3707 28.6234V30.2157C39.3707 30.7139 39.0042 31.1177 38.5521 31.1177H37.9065L37.6249 31.9735C36.1313 36.5131 32.3573 39.6241 28.0351 39.9682V40H25.6177V39.9682C21.2956 39.6241 17.5216 36.5131 16.0279 31.9735L15.7463 31.1177H15.1008C14.6486 31.1177 14.2821 30.7139 14.2821 30.2157V28.6234C14.2821 28.1253 14.6486 27.7215 15.1008 27.7215H19.7029L22.4818 21.5847C22.9131 20.4221 24.3325 20.2264 25.0105 21.2362C25.3038 21.6729 25.3774 22.2432 25.2064 22.7528L23.0901 27.7215H30.5627L28.3167 22.7528C28.1457 22.2432 28.2193 21.6729 28.5126 21.2362C29.1906 20.2264 30.61 20.4221 31.0413 21.5847L33.9499 27.7215Z" fill="black"/>
<path d="M19.7875 8C19.7875 8 17.009 12.1796 17.009 17.1436C17.009 18.9858 18.5693 20.1404 19.7763 20.758C20.4729 21.1144 20.8596 22.0318 20.5357 22.799L19.2879 25.7547C19.0088 26.4159 18.3074 26.7074 17.7347 26.3418C16.4796 25.5408 14.4425 23.9421 13.5708 21.5847C12.6344 19.0526 12.711 17.1436 13.0965 15.5761C14.1887 11.1349 19.7875 8 19.7875 8Z" fill="#454DFF"/>
<path d="M36.6438 17.1436C36.6438 12.1796 33.8653 8 33.8653 8C33.8653 8 39.4641 11.1349 40.5563 15.5761C40.9418 17.1436 41.0184 19.0526 40.0821 21.5847C39.2103 23.9421 37.1732 25.5408 35.9182 26.3418C35.3454 26.7074 34.6441 26.4159 34.3649 25.7547L33.1171 22.799C32.7932 22.0318 33.1799 21.1144 33.8765 20.758C35.0836 20.1404 36.6438 18.9858 36.6438 17.1436Z" fill="#454DFF"/>
</svg>
